<?xml version="1.0" encoding="UTF-8"?>
<svg version="1.1" xmlns="http://www.w3.org/2000/svg" width="512" height="512">
<path d="M0 0 C2.94846068 0.00314748 5.8959015 -0.02035196 8.84423828 -0.0456543 C22.23420356 -0.09027055 35.14581187 1.11142326 48.34814453 3.31567383 C50.05357422 3.59785767 50.05357422 3.59785767 51.79345703 3.88574219 C54.389253 4.35197518 56.96081163 4.87071381 59.53564453 5.44067383 C60.92456909 5.74763184 60.92456909 5.74763184 62.34155273 6.06079102 C106.79224038 16.39661722 147.52755017 38.70475281 180.34814453 70.31567383 C181.33717773 71.26385986 181.33717773 71.26385986 182.34619141 72.23120117 C191.83444759 81.37564862 200.57434893 90.67301392 208.34814453 101.31567383 C209.20620605 102.46672399 210.06427904 103.6177656 210.92236328 104.76879883 C216.9599185 112.95843364 222.34271755 121.46105658 227.34814453 130.31567383 C227.75033203 131.02288574 228.15251953 131.73009766 228.56689453 132.45874023 C243.32035304 158.6634183 252.84984787 187.60113769 257.34814453 217.31567383 C257.52547119 218.43449951 257.70279785 219.5533252 257.88549805 220.70605469 C259.56690794 232.4280333 259.70548794 244.05066359 259.66064453 255.87817383 C259.65848938 256.89857758 259.65633423 257.91898132 259.65411377 258.9703064 C259.60447806 273.59777907 259.35734165 287.94831221 256.34814453 302.31567383 C256.05012939 303.7779541 256.05012939 303.7779541 255.74609375 305.26977539 C245.62547259 353.65165123 223.70895683 397.63995652 189.34814453 433.31567383 C188.71602051 433.9750293 188.08389648 434.63438477 187.43261719 435.3137207 C178.28816974 444.80197688 168.99080444 453.54187823 158.34814453 461.31567383 C157.19709437 462.17373534 156.04605276 463.03180834 154.89501953 463.88989258 C146.70538472 469.92744779 138.20276177 475.31024685 129.34814453 480.31567383 C128.64093262 480.71786133 127.9337207 481.12004883 127.20507812 481.53442383 C104.06968618 494.55984793 78.89852044 503.30868844 52.91064453 508.62817383 C52.19175049 508.77552979 51.47285645 508.92288574 50.73217773 509.07470703 C35.2750456 512.012612 19.9830464 512.68954052 4.28564453 512.62817383 C3.29302612 512.62601868 2.30040771 512.62386353 1.27770996 512.62164307 C-13.5487571 512.57001098 -28.06698186 512.24158665 -42.65185547 509.31567383 C-43.64378906 509.11699707 -44.63572266 508.91832031 -45.65771484 508.71362305 C-94.00103707 498.66092286 -138.02513398 476.62929615 -173.65185547 442.31567383 C-174.31121094 441.6835498 -174.97056641 441.05142578 -175.64990234 440.40014648 C-185.13815852 431.25569904 -193.87805987 421.95833373 -201.65185547 411.31567383 C-202.50991699 410.16462366 -203.36798998 409.01358205 -204.22607422 407.86254883 C-210.26362943 399.67291402 -215.64642849 391.17029107 -220.65185547 382.31567383 C-221.05404297 381.60846191 -221.45623047 380.90125 -221.87060547 380.17260742 C-234.89602957 357.03721547 -243.64487008 331.86604973 -248.96435547 305.87817383 C-249.11171143 305.15927979 -249.25906738 304.44038574 -249.41088867 303.69970703 C-252.38474635 288.05341774 -253.02485909 272.57999336 -252.96435547 256.69067383 C-252.96220032 255.67276764 -252.96004517 254.65486145 -252.95782471 253.60610962 C-252.90815401 238.9970386 -252.65725738 224.6649153 -249.65185547 210.31567383 C-249.45317871 209.34082031 -249.25450195 208.3659668 -249.04980469 207.36157227 C-239.18599127 160.20737208 -218.16430964 117.08663032 -185.06201172 81.93676758 C-182.64039998 79.36725176 -182.64039998 79.36725176 -180.55810547 76.67504883 C-178.84346143 74.55282546 -177.17047308 72.87667221 -175.08935547 71.12817383 C-171.85762949 68.37675942 -168.74687631 65.53237383 -165.65185547 62.62817383 C-129.87136314 30.14066637 -83.22126105 9.51753161 -35.65185547 2.31567383 C-34.53375488 2.13834717 -33.4156543 1.96102051 -32.26367188 1.77832031 C-21.50231249 0.23401232 -10.86244537 -0.02412288 0 0 Z " fill="#008CDE" transform="translate(252.65185546875,-0.315673828125)"/>
<path d="M0 0 C4.16693021 0.79772313 4.50028409 1.51507257 6.8203125 4.90625 C7.93760926 6.76841127 9.02787131 8.64700033 10.09375 10.5390625 C10.91359375 11.91578125 10.91359375 11.91578125 11.75 13.3203125 C24.1126428 34.31905984 24.1126428 34.31905984 22.46875 46.6640625 C21.0440361 51.41141275 19.27578881 55.95842626 17.36279297 60.52783203 C16.46257928 62.67880684 15.59224875 64.84039907 14.72265625 67.00390625 C10.72448812 76.75711483 7.26925535 84.41531254 -2.69921875 88.9375 C-8.49083281 91.23438745 -14.05344046 90.92599955 -20.21875 90.9765625 C-21.37826172 91.00556641 -22.53777344 91.03457031 -23.73242188 91.06445312 C-32.38063838 91.12836831 -37.74758638 89.99303693 -44.26171875 84.26171875 C-46.57237132 81.61699592 -48.71760634 78.89625591 -50.84375 76.1015625 C-55.76264228 70.00016524 -60.80757928 66.67904616 -68.66796875 65.28515625 C-78.27783401 64.59348142 -85.44642676 69.14744146 -93.53125 73.6640625 C-95.10059448 74.51480894 -96.67092766 75.3637338 -98.2421875 76.2109375 C-112.56207447 82.98649471 -112.56207447 82.98649471 -123.53125 93.6640625 C-124.38238487 99.16960158 -124.22390461 104.14555048 -121.90625 109.2265625 C-118.12075865 113.11167205 -114.79025111 114.81041241 -109.3828125 114.984375 C-104.08087225 114.91658764 -100.24118007 113.04367965 -95.59375 110.6640625 C-87.66927741 106.88518762 -81.9769986 105.06237173 -73.34375 107.6015625 C-65.86045566 113.08931169 -61.04658454 122.24482889 -56.15625 129.9765625 C-55.52847656 130.95173828 -54.90070313 131.92691406 -54.25390625 132.93164062 C-53.65707031 133.87072266 -53.06023437 134.80980469 -52.4453125 135.77734375 C-51.9085791 136.62079346 -51.3718457 137.46424316 -50.81884766 138.33325195 C-48.34121469 142.81826559 -47.75875428 147.59685841 -48.53125 152.6640625 C-50.7825086 158.90096771 -54.52902971 161.55143067 -60.31640625 164.31420898 C-67.84361727 167.47474587 -75.68154592 169.85998112 -83.44799805 172.35913086 C-101.29808378 178.04412222 -101.29808378 178.04412222 -113.53125 191.6640625 C-116.28890245 198.75802351 -117.93958195 206.15298122 -119.63671875 213.5546875 C-120.98059106 219.16984825 -122.19305901 223.76823196 -126.84375 227.5390625 C-130.45776199 229.05190473 -131.80187221 228.95500097 -135.53125 227.6640625 C-137.94884486 225.96386714 -140.2207038 224.16241577 -142.48046875 222.2578125 C-146.6418518 219.02382338 -151.23976026 219.15059526 -156.3203125 219.1875 C-163.01526632 220.18115495 -168.02738031 224.7732685 -172.46875 229.6640625 C-177.8558704 237.49987399 -178.44619549 244.05139536 -176.90625 253.1640625 C-175.05143153 260.44358977 -171.31296021 265.89629446 -164.90625 269.8515625 C-163.12807436 270.81440572 -161.33531315 271.75064483 -159.53125 272.6640625 C-158.01337891 273.47037109 -158.01337891 273.47037109 -156.46484375 274.29296875 C-147.01951378 279.19886604 -139.90911786 280.94786291 -129.33984375 280.9375 C-127.15689582 280.95777919 -124.97395314 280.97862977 -122.79101562 281 C-119.37210632 281.02263038 -115.95340472 281.03908868 -112.53442383 281.04492188 C-109.21918878 281.05444499 -105.90487265 281.08820632 -102.58984375 281.125 C-101.57095566 281.11995453 -100.55206757 281.11490906 -99.50230408 281.10971069 C-93.51889875 281.19255189 -90.09790366 281.69863113 -85.53125 285.6640625 C-82.00435318 289.667567 -80.50399259 292.02429929 -80.21875 297.2890625 C-79.74200015 302.28771242 -78.70708995 306.67903593 -75.53125 310.6640625 C-69.45903116 315.61252655 -61.9032363 317.53217278 -54.56054688 319.95703125 C-45.73290337 323.07136625 -38.42543982 327.53373885 -33.96875 336.0390625 C-31.17055642 343.55678996 -31.81793657 350.40645782 -35.0390625 357.6484375 C-39.01205843 365.67763346 -43.27182126 373.56012054 -47.4911499 381.46166992 C-49.63804155 385.48389029 -51.77024777 389.51345289 -53.88830566 393.55093384 C-54.59970119 394.90112655 -55.31581558 396.24884516 -56.0369873 397.59384155 C-61.73940137 408.23563553 -66.14377743 418.68590228 -66.03125 430.9765625 C-66.02770508 431.71946533 -66.02416016 432.46236816 -66.02050781 433.2277832 C-65.62223014 447.30459006 -61.29647596 461.24811905 -57.578125 474.75 C-56.21016005 479.77928291 -54.99730456 484.8463097 -53.78125 489.9140625 C-53.55824219 490.83268066 -53.33523437 491.75129883 -53.10546875 492.69775391 C-52.90050781 493.55804199 -52.69554687 494.41833008 -52.484375 495.3046875 C-52.20835449 496.45759277 -52.20835449 496.45759277 -51.92675781 497.63378906 C-51.53125 499.6640625 -51.53125 499.6640625 -51.53125 502.6640625 C-85.50775675 499.24794633 -121.20172081 474.30859127 -146.53125 452.6640625 C-147.28019531 452.02726562 -148.02914062 451.39046875 -148.80078125 450.734375 C-162.29645621 438.91703782 -174.96683025 426.17854662 -185.53125 411.6640625 C-186.38774066 410.51411419 -187.24451433 409.36437661 -188.1015625 408.21484375 C-194.14159209 400.02471992 -199.52492614 391.52026632 -204.53125 382.6640625 C-204.9334375 381.95685059 -205.335625 381.24963867 -205.75 380.52099609 C-218.7754241 357.38560414 -227.52426461 332.21443841 -232.84375 306.2265625 C-232.99110596 305.50766846 -233.13846191 304.78877441 -233.2902832 304.0480957 C-236.26414088 288.40180641 -236.90425362 272.92838204 -236.84375 257.0390625 C-236.84159485 256.02115631 -236.8394397 255.00325012 -236.83721924 253.95449829 C-236.78754854 239.34542727 -236.53665191 225.01330397 -233.53125 210.6640625 C-233.33257324 209.68920898 -233.13389648 208.71435547 -232.92919922 207.70996094 C-223.0653858 160.55576075 -202.04370417 117.43501899 -168.94140625 82.28515625 C-166.51979452 79.71564043 -166.51979452 79.71564043 -164.4375 77.0234375 C-162.72285596 74.90121413 -161.04986761 73.22506088 -158.96875 71.4765625 C-155.73702402 68.72514809 -152.62627084 65.8807625 -149.53125 62.9765625 C-106.30608884 23.72954117 -55.585556 10.45303597 0 0 Z " fill="#97DA7C" transform="translate(236.53125,-0.6640625)"/>
<path d="M0 0 C6.52913353 0.35388258 11.96022546 2.85966817 17.875 5.5 C18.89513184 5.95213867 19.91526367 6.40427734 20.96630859 6.87011719 C48.07876549 19.02881824 72.58048826 35.36995026 94 56 C94.9890332 56.94818604 94.9890332 56.94818604 95.99804688 57.91552734 C105.48630305 67.05997479 114.2262044 76.35734009 122 87 C122.85806152 88.15105017 123.71613451 89.30209177 124.57421875 90.453125 C130.61177396 98.64275981 135.99457302 107.14538276 141 116 C141.60328125 117.06081787 141.60328125 117.06081787 142.21875 118.14306641 C155.46435915 141.66954485 164.31342506 167.27883045 169.5 193.75 C169.67249268 194.62543457 169.84498535 195.50086914 170.02270508 196.40283203 C170.1698999 197.21349121 170.31709473 198.02415039 170.46875 198.859375 C170.66114258 199.91850098 170.66114258 199.91850098 170.85742188 200.99902344 C171.01966059 203.27592164 170.77239154 204.85357623 170 207 C160.41625701 216.85215095 151.65710924 221.08337803 138.0625 221.5625 C136.79974243 221.57422241 136.79974243 221.57422241 135.51147461 221.58618164 C134.71491455 221.60028076 133.91835449 221.61437988 133.09765625 221.62890625 C132.38101807 221.62963135 131.66437988 221.63035645 130.92602539 221.63110352 C128.41111987 222.11278969 127.5297769 222.97554703 126 225 C125.38766039 230.63630776 126.79266663 235.11014375 128.5 240.375 C132.95948061 255.25897977 132.14210334 268.49561245 124.89379883 282.32421875 C124.29668091 283.43216797 124.29668091 283.43216797 123.6875 284.5625 C123.25655029 285.37203125 122.82560059 286.1815625 122.3815918 287.015625 C118.28408534 294.63031984 113.9155916 302.08253541 109.52612305 309.53149414 C105.06228318 317.12259801 100.75200354 324.78848697 96.5 332.5 C91.11439623 342.26184342 85.59380508 351.93059994 79.93554688 361.53686523 C77.26695912 366.07659764 74.63301125 370.625678 72.11328125 375.25 C71.66831299 376.06654053 71.22334473 376.88308105 70.76489258 377.72436523 C69.95876417 379.21448137 69.15964741 380.70842731 68.36987305 382.20727539 C65.18127907 388.11035754 61.61699933 393.40927492 55.8125 396.9375 C50.05954329 398.54078302 44.32888359 399.34819786 38.65625 397.05078125 C32.43373524 393.37067458 28.86749918 389.03065481 27 382 C26.72055084 378.78437115 26.72970637 375.58407429 26.74462891 372.35791016 C26.74100845 371.40428085 26.737388 370.45065155 26.73365784 369.46812439 C26.72678163 367.40400777 26.72425506 365.33987303 26.72560501 363.27574539 C26.72657262 360.00486266 26.71360004 356.7343064 26.69662476 353.46347046 C26.65042322 344.16610226 26.62574864 334.86876816 26.61914062 325.57128906 C26.61411899 319.87784196 26.58983711 314.18473671 26.55381393 308.49140549 C26.54403264 306.32657297 26.54167483 304.16169334 26.54698563 301.99684525 C26.55407613 298.96448611 26.53673291 295.93314219 26.51416016 292.90087891 C26.52641884 291.56957695 26.52641884 291.56957695 26.53892517 290.21138 C26.44760133 283.29050117 24.60051303 278.14623097 20.17578125 272.79296875 C19.56089844 272.26316406 18.94601562 271.73335938 18.3125 271.1875 C17.71050781 270.64480469 17.10851562 270.10210937 16.48828125 269.54296875 C9.5799033 265.25912371 2.70521123 264.65942229 -5.25 264.625 C-20.06383513 264.20089528 -31.81915593 259.418578 -42.28515625 248.6484375 C-53.03417839 235.9907105 -56.08357824 222.28862768 -55 206 C-53.1029514 193.78990537 -45.44981889 182.67797785 -36 175 C-22.7745102 165.53175162 -9.36081298 163.40723329 6.42176437 163.5141449 C9.08862348 163.53167858 11.75442459 163.52375768 14.42129517 163.5098877 C20.07260599 163.48478421 25.72365632 163.49001742 31.375 163.5 C37.95259565 163.51157144 44.52966685 163.51028899 51.10719681 163.47593689 C53.72194777 163.46888879 56.33584746 163.48545011 58.95053101 163.50305176 C60.56256559 163.49734194 62.17459676 163.4905237 63.78662109 163.48242188 C64.50262482 163.49373642 65.21862854 163.50505096 65.95632935 163.51670837 C71.29714848 163.4529052 75.57273093 162.0356068 80 159 C83.64660828 154.86057643 84.6621963 150.67364084 84.3828125 145.20703125 C83.4874982 140.04527026 81.09693406 136.85068356 76.9375 133.625 C72.59782534 131.22432891 69.50353316 130.86118934 64.60424805 130.80712891 C63.9599585 130.79895142 63.31566895 130.79077393 62.65185547 130.78234863 C60.52181922 130.75755739 58.39184934 130.74099493 56.26171875 130.7265625 C55.53277719 130.72123882 54.80383564 130.71591515 54.05280495 130.71043015 C50.19447507 130.68372586 46.33617725 130.66434229 42.4777832 130.64990234 C39.28934029 130.63656362 36.10153745 130.60870994 32.91333008 130.56787109 C29.05834159 130.5184961 25.20393353 130.49377584 21.34864235 130.48667526 C19.88263421 130.47997277 18.41663852 130.46477652 16.95081139 130.44078445 C8.06183699 129.94037199 8.06183699 129.94037199 0.19824219 133.32397461 C-2.22988434 136.21480593 -2.22988434 136.21480593 -4.30859375 139.33984375 C-4.65962158 139.92540039 -5.01064941 140.51095703 -5.37231445 141.11425781 C-5.72382568 141.71592773 -6.07533691 142.31759766 -6.4375 142.9375 C-10.41579777 149.43013586 -14.60273992 155.14623469 -22 158 C-31.09790639 158.98355745 -39.425253 159.28052541 -47.11328125 153.70703125 C-52.39710625 148.92642768 -54.61341616 143.46945175 -55.22265625 136.42578125 C-55.55431673 126.08662642 -52.82304549 118.72305506 -46 111 C-39.94059759 104.87169954 -32.91926889 100.79849269 -25.4375 96.625 C-24.269308 95.96392155 -23.10175052 95.30172064 -21.93481445 94.63842773 C-19.65006593 93.33980349 -17.36376275 92.04412158 -15.07617188 90.75048828 C-8.9806513 87.28184681 -2.99071812 83.64590244 3 80 C4.2158113 79.27287784 5.43196324 78.54632499 6.6484375 77.8203125 C7.82832043 77.10969938 9.00801559 76.39877439 10.1875 75.6875 C11.21230469 75.07261719 12.23710937 74.45773438 13.29296875 73.82421875 C17.05234982 71.29084074 19.54979872 69.35060384 21 65 C21.38538297 60.21235777 21.55762433 55.63802147 20 51.0625 C16.18587427 47.12918285 11.95092391 45.28377075 6.5625 44.5 C3.31487138 44.95580753 1.55905431 45.58941192 -1.3125 47 C-6.23798453 49.35347384 -10.6054614 49.90981145 -16 49 C-21.31565158 46.34217421 -25.10236008 42.69291975 -27 37 C-27.23828125 34.73046875 -27.23828125 34.73046875 -27.3125 32.1875 C-27.34988281 31.35605469 -27.38726562 30.52460937 -27.42578125 29.66796875 C-26.37540651 23.08626282 -20.96883414 18.80724124 -16.25 14.5625 C-15.32054565 13.71316895 -15.32054565 13.71316895 -14.37231445 12.84667969 C-10.41130861 9.23814281 -6.41530329 5.6690459 -2.35546875 2.171875 C-1.54756181 1.47339638 -0.75517746 0.75517746 0 0 Z " fill="#97DA7C" transform="translate(339,14)"/>
<path d="M0 0 C3.83545002 6.95003405 3.16467361 15.38503342 3.203125 23.1328125 C3.21018463 24.07916061 3.21724426 25.02550873 3.22451782 26.00053406 C3.45241099 65.51652112 3.45241099 65.51652112 0 82 C-0.29801514 83.46228027 -0.29801514 83.46228027 -0.60205078 84.95410156 C-10.72267194 133.3359774 -32.6391877 177.32428269 -67 213 C-67.63212402 213.65935547 -68.26424805 214.31871094 -68.91552734 214.99804688 C-78.05997479 224.48630305 -87.35734009 233.2262044 -98 241 C-99.15105017 241.85806152 -100.30209177 242.71613451 -101.453125 243.57421875 C-109.64275981 249.61177396 -118.14538276 254.99457302 -127 260 C-127.70721191 260.4021875 -128.41442383 260.804375 -129.14306641 261.21875 C-152.27845836 274.2441741 -177.44962409 282.99301461 -203.4375 288.3125 C-204.15639404 288.45985596 -204.87528809 288.60721191 -205.6159668 288.7590332 C-221.07309893 291.69693818 -236.36509813 292.37386669 -252.0625 292.3125 C-253.05511841 292.31034485 -254.04773682 292.3081897 -255.07043457 292.30596924 C-279.00930182 292.22260388 -300.80855932 289.09662745 -324 283 C-324.9884759 279.02308761 -325.96406402 275.04311807 -326.9375 271.0625 C-327.21529297 269.94552734 -327.49308594 268.82855469 -327.77929688 267.67773438 C-329.29785172 261.43885242 -330.46380747 255.40037416 -331 249 C-330.15219971 248.9906543 -329.30439941 248.98130859 -328.4309082 248.97167969 C-267.64050126 248.13764626 -207.78122227 233.5615155 -160 194 C-158.50919922 192.7934375 -158.50919922 192.7934375 -156.98828125 191.5625 C-153.09504696 188.40217096 -149.23944391 185.20680443 -145.4375 181.9375 C-143 180 -143 180 -141 180 C-139.703125 181.64453125 -139.703125 181.64453125 -138.25 183.8125 C-135.49893361 187.53996405 -133.56356365 189.62232041 -129 191 C-123.02664697 191.72487694 -117.21824343 191.7325559 -111.95532227 188.53442383 C-104.60590309 182.76702471 -100.29907338 172.41739831 -95.9375 164.375 C-94.62123928 161.97041994 -93.29968242 159.56878034 -91.9765625 157.16796875 C-91.47879051 156.26383995 -91.47879051 156.26383995 -90.97096252 155.34144592 C-87.68721304 149.3965467 -84.26107972 143.53810427 -80.8125 137.6875 C-75.84205702 129.2400381 -71.0597707 120.71257321 -66.40429688 112.08789062 C-62.96705685 105.7319795 -59.42042103 99.44791643 -55.8125 93.1875 C-52.06599623 86.6672539 -48.36905321 80.12611551 -44.8125 73.5 C-44.43778564 72.81188232 -44.06307129 72.12376465 -43.67700195 71.41479492 C-37.61956067 59.99747063 -38.85768585 46.41118128 -42.5 34.375 C-42.73799316 33.64192627 -42.97598633 32.90885254 -43.22119141 32.15356445 C-44.66985103 27.64909003 -45.60347536 23.79298698 -45 19 C-43.5703125 16.59375 -43.5703125 16.59375 -41 15 C-37.95694892 14.48190417 -34.95586101 14.49791532 -31.875 14.5 C-17.74080228 14.07362302 -10.26519371 9.2422019 0 0 Z " fill="#0069CF" transform="translate(509,220)"/>
<path d="M0 0 C0.33 0 0.66 0 1 0 C1.92015527 6.20782106 2.83653188 12.41619139 3.75 18.625 C3.88627808 19.55105042 4.02255615 20.47710083 4.16296387 21.43121338 C6.12041857 34.75523199 7.99899646 48.08529456 9.70605469 61.44384766 C10.34816896 66.40977188 11.03194127 71.34147752 11.96484375 76.26171875 C12.83165412 80.85306592 13.49691247 85.4594299 14.11328125 90.08984375 C14.31163805 91.54885681 14.51020854 93.00784084 14.70898438 94.46679688 C15.01301426 96.70115973 15.31226198 98.93562632 15.59643555 101.17260742 C17.60099358 116.84601438 21.36372242 129.47974243 34.21875 139.77734375 C35.56570381 140.76494235 36.91573221 141.74836839 38.26953125 142.7265625 C41.55163587 145.14183588 43.55923145 147.0505846 44.48046875 151.125 C45.01628464 157.7569854 43.04380208 162.78250396 40.5 168.75 C36.08816013 179.25182306 34.97165148 188.41472443 39 199.4375 C42.39416169 206.48908245 47.212133 210.85666213 53.3125 215.58203125 C53.90877197 216.04407959 54.50504395 216.50612793 55.11938477 216.98217773 C56.28230089 217.87306487 57.4539834 218.75269565 58.63647461 219.61743164 C69.37963559 227.69674448 75.25695306 237.53309864 80.625 249.5625 C81.31634334 251.07487398 82.00933123 252.58649714 82.70385742 254.09741211 C84.48162331 257.97599986 86.23815045 261.86378824 87.98834229 265.75488281 C89.54810952 269.21638979 91.12371474 272.67063455 92.69921875 276.125 C94.509527 280.09710304 96.31728903 284.0702918 98.11450195 288.04833984 C101.7295666 296.04548466 105.39102105 304.01959244 109.09375 311.9765625 C109.52721237 312.90856979 109.96067474 313.84057709 110.40727234 314.80082703 C112.54411218 319.39350601 114.68505468 323.98421841 116.83129883 328.57250977 C117.612896 330.25011476 118.39439493 331.92776553 119.17578125 333.60546875 C119.53341553 334.36650909 119.8910498 335.12754944 120.25952148 335.91165161 C122.10484066 339.8817601 123.71036003 343.80504984 125 348 C98.1809076 340.00952556 72.87722496 319.14460724 53 300 C52.34064453 299.36787598 51.68128906 298.73575195 51.00195312 298.08447266 C41.51369695 288.94002521 32.7737956 279.64265991 25 269 C24.14193848 267.84894983 23.28386549 266.69790823 22.42578125 265.546875 C16.38822604 257.35724019 11.00542698 248.85461724 6 240 C5.5978125 239.29278809 5.195625 238.58557617 4.78125 237.85693359 C-8.2441741 214.72154164 -16.99301461 189.55037591 -22.3125 163.5625 C-22.45985596 162.84360596 -22.60721191 162.12471191 -22.7590332 161.3840332 C-25.73289088 145.73774391 -26.37300362 130.26431954 -26.3125 114.375 C-26.31034485 113.35709381 -26.3081897 112.33918762 -26.30596924 111.29043579 C-26.25629854 96.68136477 -26.00540191 82.34924147 -23 68 C-22.80132324 67.02514648 -22.60264648 66.05029297 -22.39794922 65.04589844 C-11.11698781 11.11698781 -11.11698781 11.11698781 0 0 Z " fill="#008CDE" transform="translate(26,142)"/>
<path d="M0 0 C5.55048762 1.58970277 10.35130318 4.1586384 15.375 6.9375 C16.25623535 7.42476562 17.1374707 7.91203125 18.04541016 8.4140625 C36.29093561 18.66502391 52.94027448 31.49533294 68 46 C68.65935547 46.63212402 69.31871094 47.26424805 69.99804688 47.91552734 C79.48630305 57.05997479 88.2262044 66.35734009 96 77 C96.85806152 78.15105017 97.71613451 79.30209177 98.57421875 80.453125 C104.61177396 88.64275981 109.99457302 97.14538276 115 106 C115.60328125 107.06081787 115.60328125 107.06081787 116.21875 108.14306641 C129.46435915 131.66954485 138.31342506 157.27883045 143.5 183.75 C143.67249268 184.62543457 143.84498535 185.50086914 144.02270508 186.40283203 C144.1698999 187.21349121 144.31709473 188.02415039 144.46875 188.859375 C144.66114258 189.91850098 144.66114258 189.91850098 144.85742188 190.99902344 C145.01966059 193.27592164 144.77239154 194.85357623 144 197 C134.41625701 206.85215095 125.65710924 211.08337803 112.0625 211.5625 C110.79974243 211.57422241 110.79974243 211.57422241 109.51147461 211.58618164 C108.71491455 211.60028076 107.91835449 211.61437988 107.09765625 211.62890625 C106.38101807 211.62963135 105.66437988 211.63035645 104.92602539 211.63110352 C102.41111987 212.11278969 101.5297769 212.97554703 100 215 C99.38766039 220.63630776 100.79266663 225.11014375 102.5 230.375 C106.95948061 245.25897977 106.14210334 258.49561245 98.89379883 272.32421875 C98.49572021 273.06285156 98.0976416 273.80148437 97.6875 274.5625 C97.25655029 275.37203125 96.82560059 276.1815625 96.3815918 277.015625 C92.28408534 284.63031984 87.9155916 292.08253541 83.52612305 299.53149414 C79.06228318 307.12259801 74.75200354 314.78848697 70.5 322.5 C65.11439623 332.26184342 59.59380508 341.93059994 53.93554688 351.53686523 C51.26695912 356.07659764 48.63301125 360.625678 46.11328125 365.25 C45.66831299 366.06654053 45.22334473 366.88308105 44.76489258 367.72436523 C43.95876417 369.21448137 43.15964741 370.70842731 42.36987305 372.20727539 C39.18127907 378.11035754 35.61699933 383.40927492 29.8125 386.9375 C24.05954329 388.54078302 18.32888359 389.34819786 12.65625 387.05078125 C8.1428518 384.38147672 3.85910021 381.09388376 2.40234375 375.84765625 C2.26957031 375.23792969 2.13679688 374.62820313 2 374 C2.43828125 373.64550781 2.8765625 373.29101562 3.328125 372.92578125 C42.68188393 339.89102019 69.87601556 285.16793838 78 235 C78.13535156 234.19143555 78.27070313 233.38287109 78.41015625 232.54980469 C83.03360188 203.61161684 83.44754724 171.82818199 78 143 C77.83902832 142.11683105 77.67805664 141.23366211 77.51220703 140.32373047 C67.82566008 88.8203324 41.48938619 41.43761275 4.01245117 4.99804688 C2.65973154 3.68083224 1.32756979 2.34255848 0 1 C0 0.67 0 0.34 0 0 Z " fill="#76CB7D" transform="translate(365,24)"/>
<path d="M0 0 C5.99512294 0.54763142 11.96644375 1.23527588 17.9375 2 C24.28113979 2.81090867 30.62518454 3.48677333 37 4 C37.33 3.01 37.66 2.02 38 1 C38.98254209 5.14336506 39.9609879 9.28767049 40.93579102 13.43286133 C41.26737241 14.8403477 41.60003554 16.24757972 41.93383789 17.65454102 C42.41583277 19.68698877 42.89381824 21.72034574 43.37109375 23.75390625 C43.65911865 24.97408447 43.94714355 26.1942627 44.24389648 27.45141602 C44.99091408 30.95735747 45.53564287 34.4465718 46 38 C39.56336703 37.40833179 33.9112737 35.36750381 27.875 33.125 C26.41126953 32.59712891 26.41126953 32.59712891 24.91796875 32.05859375 C12.19405803 27.38910946 12.19405803 27.38910946 8.88671875 20.2734375 C8.0987793 18.6028125 8.0987793 18.6028125 7.29492188 16.8984375 C6.76447266 15.73570312 6.23402344 14.57296875 5.6875 13.375 C5.13771484 12.20453125 4.58792969 11.0340625 4.02148438 9.828125 C0 1.21565411 0 1.21565411 0 0 Z " fill="#75CB7D" transform="translate(139,464)"/>
<path d="M0 0 C3.32882959 0.58853649 6.28907499 1.40510769 9.40625 2.70703125 C10.63541138 3.21314941 10.63541138 3.21314941 11.8894043 3.72949219 C12.75090088 4.08688477 13.61239746 4.44427734 14.5 4.8125 C20.18034108 7.11999486 25.83673193 9.40355989 31.6875 11.25 C33.19183594 11.73146484 33.19183594 11.73146484 34.7265625 12.22265625 C37.36054196 12.84814779 39.48277209 13.11930174 42.1484375 13.24609375 C46.92281428 13.63555725 51.06467272 14.08167806 55 17 C59.98153219 23.70814337 67 35.41498697 67 44 C44.94021201 37.42751166 24.51212857 21.48118324 7 7 C6.2059375 6.34773438 5.411875 5.69546875 4.59375 5.0234375 C3.03305957 3.71666893 1.5094213 2.36566689 0 1 C0 0.67 0 0.34 0 0 Z " fill="#0069CF" transform="translate(84,446)"/>
</svg>
